<mxfile host="app.diagrams.net" modified="2021-10-28T20:12:20.664Z" agent="5.0 (Windows NT 10.0; Win64; x64) AppleWebKit/537.36 (KHTML, like Gecko) Chrome/95.0.4638.54 Safari/537.36" etag="QMckSjWzq_PjTKfEEL-x" version="15.6.2" type="github">
  <diagram id="2qExpmGDyMYg8OurNlV5" name="Page-1">
    <mxGraphModel dx="2797" dy="3980" grid="1" gridSize="10" guides="1" tooltips="1" connect="1" arrows="1" fold="1" page="1" pageScale="1" pageWidth="850" pageHeight="1100" math="0" shadow="0">
      <root>
        <mxCell id="0" />
        <mxCell id="1" parent="0" />
        <mxCell id="dS0tU1C4Hypq0hL0aEkq-9" style="rounded=0;orthogonalLoop=1;jettySize=auto;html=1;exitX=0;exitY=0.5;exitDx=0;exitDy=0;endArrow=none;endFill=0;entryX=1;entryY=0.3333333333333333;entryDx=0;entryDy=0;entryPerimeter=0;" edge="1" parent="1" source="dS0tU1C4Hypq0hL0aEkq-1" target="dS0tU1C4Hypq0hL0aEkq-8">
          <mxGeometry relative="1" as="geometry">
            <mxPoint x="-1320" y="-2590" as="targetPoint" />
          </mxGeometry>
        </mxCell>
        <mxCell id="dS0tU1C4Hypq0hL0aEkq-1" value="UPLOAD EXCEL SHEET FILE" style="ellipse;whiteSpace=wrap;html=1;" vertex="1" parent="1">
          <mxGeometry x="-1180" y="-2780" width="120" height="80" as="geometry" />
        </mxCell>
        <mxCell id="dS0tU1C4Hypq0hL0aEkq-10" style="edgeStyle=none;rounded=0;orthogonalLoop=1;jettySize=auto;html=1;exitX=0;exitY=0.5;exitDx=0;exitDy=0;endArrow=none;endFill=0;" edge="1" parent="1" source="dS0tU1C4Hypq0hL0aEkq-2" target="dS0tU1C4Hypq0hL0aEkq-8">
          <mxGeometry relative="1" as="geometry">
            <mxPoint x="-1380" y="-2570" as="targetPoint" />
          </mxGeometry>
        </mxCell>
        <mxCell id="dS0tU1C4Hypq0hL0aEkq-18" style="edgeStyle=none;rounded=0;orthogonalLoop=1;jettySize=auto;html=1;exitX=0.5;exitY=0;exitDx=0;exitDy=0;entryX=0.5;entryY=1;entryDx=0;entryDy=0;dashed=1;endArrow=classic;endFill=1;" edge="1" parent="1" source="dS0tU1C4Hypq0hL0aEkq-2" target="dS0tU1C4Hypq0hL0aEkq-1">
          <mxGeometry relative="1" as="geometry" />
        </mxCell>
        <mxCell id="dS0tU1C4Hypq0hL0aEkq-2" value="SELECT TEMPLATE" style="ellipse;whiteSpace=wrap;html=1;" vertex="1" parent="1">
          <mxGeometry x="-1180" y="-2660" width="120" height="80" as="geometry" />
        </mxCell>
        <mxCell id="dS0tU1C4Hypq0hL0aEkq-11" style="edgeStyle=none;rounded=0;orthogonalLoop=1;jettySize=auto;html=1;exitX=0;exitY=0.5;exitDx=0;exitDy=0;endArrow=none;endFill=0;" edge="1" parent="1" source="dS0tU1C4Hypq0hL0aEkq-4" target="dS0tU1C4Hypq0hL0aEkq-8">
          <mxGeometry relative="1" as="geometry" />
        </mxCell>
        <mxCell id="dS0tU1C4Hypq0hL0aEkq-17" style="edgeStyle=none;rounded=0;orthogonalLoop=1;jettySize=auto;html=1;exitX=0.5;exitY=0;exitDx=0;exitDy=0;entryX=0.5;entryY=1;entryDx=0;entryDy=0;dashed=1;endArrow=classic;endFill=1;" edge="1" parent="1" source="dS0tU1C4Hypq0hL0aEkq-4" target="dS0tU1C4Hypq0hL0aEkq-2">
          <mxGeometry relative="1" as="geometry" />
        </mxCell>
        <mxCell id="dS0tU1C4Hypq0hL0aEkq-4" value="ADD SIGNATORIES" style="ellipse;whiteSpace=wrap;html=1;" vertex="1" parent="1">
          <mxGeometry x="-1180" y="-2550" width="120" height="80" as="geometry" />
        </mxCell>
        <mxCell id="dS0tU1C4Hypq0hL0aEkq-19" style="edgeStyle=none;rounded=0;orthogonalLoop=1;jettySize=auto;html=1;exitX=0.5;exitY=0;exitDx=0;exitDy=0;entryX=1;entryY=0.5;entryDx=0;entryDy=0;dashed=1;endArrow=classic;endFill=1;" edge="1" parent="1" source="dS0tU1C4Hypq0hL0aEkq-5" target="dS0tU1C4Hypq0hL0aEkq-4">
          <mxGeometry relative="1" as="geometry" />
        </mxCell>
        <mxCell id="dS0tU1C4Hypq0hL0aEkq-22" style="edgeStyle=none;rounded=0;orthogonalLoop=1;jettySize=auto;html=1;exitX=1;exitY=0.5;exitDx=0;exitDy=0;endArrow=none;endFill=0;" edge="1" parent="1" source="dS0tU1C4Hypq0hL0aEkq-5" target="dS0tU1C4Hypq0hL0aEkq-21">
          <mxGeometry relative="1" as="geometry" />
        </mxCell>
        <mxCell id="dS0tU1C4Hypq0hL0aEkq-5" value="GENERATE CERTIFICATES" style="ellipse;whiteSpace=wrap;html=1;" vertex="1" parent="1">
          <mxGeometry x="-1010" y="-2480" width="120" height="80" as="geometry" />
        </mxCell>
        <mxCell id="dS0tU1C4Hypq0hL0aEkq-12" style="edgeStyle=none;rounded=0;orthogonalLoop=1;jettySize=auto;html=1;exitX=0;exitY=0.5;exitDx=0;exitDy=0;endArrow=none;endFill=0;" edge="1" parent="1" source="dS0tU1C4Hypq0hL0aEkq-6" target="dS0tU1C4Hypq0hL0aEkq-8">
          <mxGeometry relative="1" as="geometry">
            <mxPoint x="-1320" y="-2560" as="targetPoint" />
          </mxGeometry>
        </mxCell>
        <mxCell id="dS0tU1C4Hypq0hL0aEkq-16" style="edgeStyle=none;rounded=0;orthogonalLoop=1;jettySize=auto;html=1;exitX=0.5;exitY=0;exitDx=0;exitDy=0;entryX=0;entryY=0.5;entryDx=0;entryDy=0;endArrow=classic;endFill=1;dashed=1;" edge="1" parent="1" source="dS0tU1C4Hypq0hL0aEkq-6" target="dS0tU1C4Hypq0hL0aEkq-5">
          <mxGeometry relative="1" as="geometry" />
        </mxCell>
        <mxCell id="dS0tU1C4Hypq0hL0aEkq-6" value="GO TO CERTIFICATES" style="ellipse;whiteSpace=wrap;html=1;" vertex="1" parent="1">
          <mxGeometry x="-1180" y="-2360" width="120" height="80" as="geometry" />
        </mxCell>
        <mxCell id="dS0tU1C4Hypq0hL0aEkq-13" style="edgeStyle=none;rounded=0;orthogonalLoop=1;jettySize=auto;html=1;exitX=0;exitY=0.5;exitDx=0;exitDy=0;endArrow=none;endFill=0;" edge="1" parent="1" source="dS0tU1C4Hypq0hL0aEkq-7" target="dS0tU1C4Hypq0hL0aEkq-8">
          <mxGeometry relative="1" as="geometry">
            <mxPoint x="-1320" y="-2570" as="targetPoint" />
          </mxGeometry>
        </mxCell>
        <mxCell id="dS0tU1C4Hypq0hL0aEkq-15" style="edgeStyle=none;rounded=0;orthogonalLoop=1;jettySize=auto;html=1;exitX=0.5;exitY=0;exitDx=0;exitDy=0;entryX=0.5;entryY=1;entryDx=0;entryDy=0;endArrow=classic;endFill=1;dashed=1;" edge="1" parent="1" source="dS0tU1C4Hypq0hL0aEkq-7" target="dS0tU1C4Hypq0hL0aEkq-5">
          <mxGeometry relative="1" as="geometry" />
        </mxCell>
        <mxCell id="dS0tU1C4Hypq0hL0aEkq-7" value="GO TO START" style="ellipse;whiteSpace=wrap;html=1;" vertex="1" parent="1">
          <mxGeometry x="-1010" y="-2360" width="120" height="80" as="geometry" />
        </mxCell>
        <mxCell id="dS0tU1C4Hypq0hL0aEkq-8" value="User" style="shape=umlActor;verticalLabelPosition=bottom;verticalAlign=top;html=1;outlineConnect=0;" vertex="1" parent="1">
          <mxGeometry x="-1420" y="-2595" width="30" height="60" as="geometry" />
        </mxCell>
        <mxCell id="dS0tU1C4Hypq0hL0aEkq-21" value="Application&lt;br&gt;System" style="shape=umlActor;verticalLabelPosition=bottom;verticalAlign=top;html=1;outlineConnect=0;" vertex="1" parent="1">
          <mxGeometry x="-790" y="-2520" width="30" height="60" as="geometry" />
        </mxCell>
        <mxCell id="dS0tU1C4Hypq0hL0aEkq-23" value="" style="swimlane;startSize=0;" vertex="1" parent="1">
          <mxGeometry x="-1260" y="-2820" width="400" height="550" as="geometry" />
        </mxCell>
        <mxCell id="dS0tU1C4Hypq0hL0aEkq-24" value="&amp;lt;&amp;lt;include&amp;gt;&amp;gt;" style="text;html=1;strokeColor=none;fillColor=none;align=center;verticalAlign=middle;whiteSpace=wrap;rounded=0;" vertex="1" parent="dS0tU1C4Hypq0hL0aEkq-23">
          <mxGeometry x="150" y="120" width="60" height="30" as="geometry" />
        </mxCell>
        <mxCell id="dS0tU1C4Hypq0hL0aEkq-25" value="&amp;lt;&amp;lt;include&amp;gt;&amp;gt;" style="text;html=1;strokeColor=none;fillColor=none;align=center;verticalAlign=middle;whiteSpace=wrap;rounded=0;" vertex="1" parent="dS0tU1C4Hypq0hL0aEkq-23">
          <mxGeometry x="150" y="240" width="60" height="30" as="geometry" />
        </mxCell>
        <mxCell id="dS0tU1C4Hypq0hL0aEkq-26" value="&amp;lt;&amp;lt;include&amp;gt;&amp;gt;" style="text;html=1;strokeColor=none;fillColor=none;align=center;verticalAlign=middle;whiteSpace=wrap;rounded=0;" vertex="1" parent="dS0tU1C4Hypq0hL0aEkq-23">
          <mxGeometry x="240" y="300" width="60" height="30" as="geometry" />
        </mxCell>
        <mxCell id="dS0tU1C4Hypq0hL0aEkq-27" value="&amp;lt;&amp;lt;include&amp;gt;&amp;gt;" style="text;html=1;strokeColor=none;fillColor=none;align=center;verticalAlign=middle;whiteSpace=wrap;rounded=0;" vertex="1" parent="dS0tU1C4Hypq0hL0aEkq-23">
          <mxGeometry x="150" y="390" width="60" height="30" as="geometry" />
        </mxCell>
        <mxCell id="dS0tU1C4Hypq0hL0aEkq-28" value="&amp;lt;&amp;lt;include&amp;gt;&amp;gt;" style="text;html=1;strokeColor=none;fillColor=none;align=center;verticalAlign=middle;whiteSpace=wrap;rounded=0;" vertex="1" parent="dS0tU1C4Hypq0hL0aEkq-23">
          <mxGeometry x="320" y="430" width="60" height="30" as="geometry" />
        </mxCell>
        <mxCell id="dS0tU1C4Hypq0hL0aEkq-29" value="AUTOCERTIGEN - AN AUTOMATED SYSTEM FOR CERTIFICATES GENERATION" style="text;html=1;strokeColor=none;fillColor=none;align=center;verticalAlign=middle;whiteSpace=wrap;rounded=0;" vertex="1" parent="dS0tU1C4Hypq0hL0aEkq-23">
          <mxGeometry x="15" y="3" width="370" height="30" as="geometry" />
        </mxCell>
      </root>
    </mxGraphModel>
  </diagram>
</mxfile>
